<!DOCTYPE svg PUBLIC "-//W3C//DTD SVG 1.1//EN" "http://www.w3.org/Graphics/SVG/1.1/DTD/svg11.dtd">
<!-- Uploaded to: SVG Repo, www.svgrepo.com, Transformed by: SVG Repo Mixer Tools -->
<svg fill="#bc841c" version="1.1" id="Capa_1" xmlns="http://www.w3.org/2000/svg" xmlns:xlink="http://www.w3.org/1999/xlink" width="800px" height="800px" viewBox="0 0 792.739 792.74" xml:space="preserve">
<g id="SVGRepo_bgCarrier" stroke-width="0"/>
<g id="SVGRepo_tracerCarrier" stroke-linecap="round" stroke-linejoin="round"/>
<g id="SVGRepo_iconCarrier"> <g> <g> <g> <path d="M792.5,736.72L792.5,736.72L792.5,736.72c-0.199-1.5-0.6-3-1.1-4.4c-3.6-13.701-11.701-38.5-15.4-49.701 c-0.4-1.898-1-3.799-1.9-5.6v-0.1l0,0c-2.299-4.801-5.9-8.9-10.5-11.6l0,0c-0.299-0.201-0.799-0.5-1.6-0.9 c-0.301-0.199-0.6-0.301-0.9-0.4c-8.9-4.199-36.4-15.199-36.4-15.199l0,0c-13.699-5.9-27.898-11-42.398-16.201l0,0l0,0l0,0l0,0 c-2.602,10.801-27.201,82.301-31.102,92.301l-3.1-66.5c1-1.6,1.801-3.4,2.6-5.1L661,633.019c-7.199,6-18.1,9.801-30.199,9.801 c-11.801,0-22.4-3.6-29.602-9.4l10,19.801c0.801,1.699,1.5,3.5,2.602,5.1l-3.102,66.5c-3.898-9.9-28.5-81.5-31.1-92.301l0,0l0,0 l0,0l0,0c-14.5,5.1-28.699,10.201-42.4,16.201l0,0c0,0-27.398,11-36.398,15.199c-0.301,0.1-0.602,0.301-0.9,0.4 c-0.801,0.4-1.301,0.699-1.6,0.9l0,0c-4.602,2.699-8.201,6.799-10.5,11.6l0,0c0,0,0,0,0,0.1c-0.801,1.801-1.4,3.6-1.9,5.6 c-3.701,11.1-11.801,36-15.4,49.701c-0.5,1.398-0.801,2.898-1.1,4.398l0,0l0,0c-0.201,1.301-0.301,2.701-0.301,4.102 c0,14.6,11.9,26.5,26.5,26.5H520.9c36.199,0,72.4,0,108.6,0c0.5,0,0.9,0,1.4,0l0,0c0.5,0,0.9,0,1.4,0c36.199,0,72.398,0,108.6,0 h25.299c14.602,0,26.5-11.9,26.5-26.5C792.801,739.419,792.699,738.019,792.5,736.72z"/> <path d="M700.1,509.619c0-4.699,0.9-21.6,0.9-25.5c0-37.898-30.699-68.6-68.6-68.6l0,0l0,0h-0.1h-0.102l0,0l0,0 c-0.398,0-0.898,0-1.299,0s-0.9,0-1.301,0l0,0l0,0h-0.1h-0.1l0,0l0,0c-37.9,0-68.6,30.701-68.6,68.6c0,3.9,0.898,20.9,0.898,25.5 c-1.699,0.102-17-3.6-15.398,14.801c3.5,39,18.398,31.4,18.799,31.4c7.301,23.5,18.701,38.5,29.801,48.1 c17.4,14.9,34.199,16.5,34.5,16.5c0.5,0,0.9,0,1.4,0l0,0l0,0c0.5,0,0.898,0,1.398,0c0.301,0,17-1.6,34.301-16.4 c11.199-9.5,22.6-24.6,30-48.199c0.4,0,15.301,7.6,18.801-31.4C717.1,506.019,701.801,509.72,700.1,509.619z"/> </g> <g> <path d="M323.4,736.72L323.4,736.72L323.4,736.72c-0.2-1.5-0.6-3-1.1-4.4c-3.601-13.701-11.7-38.5-15.4-49.701 c-0.4-1.898-1-3.799-1.9-5.6v-0.1l0,0c-2.3-4.801-5.899-8.9-10.5-11.6l0,0c-0.3-0.201-0.8-0.5-1.6-0.9 c-0.3-0.199-0.6-0.301-0.9-0.4c-8.9-4.199-36.4-15.199-36.4-15.199l0,0c-13.7-5.9-27.9-11-42.4-16.201l0,0l0,0l0,0l0,0 c-2.6,10.801-27.2,82.301-31.1,92.301l-3.1-66.5c1-1.6,1.8-3.4,2.6-5.1l10.3-20.301c-7.2,6-18.1,9.801-30.2,9.801 c-11.8,0-22.4-3.6-29.6-9.4l10,19.801c0.8,1.699,1.5,3.5,2.6,5.1l-3.1,66.5c-3.9-9.9-28.5-81.5-31.1-92.301l0,0l0,0l0,0l0,0 c-14.5,5.1-28.7,10.201-42.4,16.201l0,0c0,0-27.4,11-36.4,15.199c-0.3,0.1-0.6,0.301-0.9,0.4c-0.8,0.4-1.3,0.699-1.6,0.9l0,0 c-4.6,2.699-8.2,6.799-10.5,11.6l0,0c0,0,0,0,0,0.1c-0.8,1.801-1.4,3.6-1.9,5.6C13.1,693.82,5,718.619,1.4,732.32 c-0.5,1.4-0.8,2.9-1.1,4.4l0,0l0,0c-0.2,1.299-0.3,2.699-0.3,4.1c0,14.6,11.9,26.5,26.5,26.5h25.3c36.2,0,72.4,0,108.6,0 c0.5,0,0.9,0,1.4,0l0,0c0.5,0,0.9,0,1.4,0c36.2,0,72.4,0,108.6,0h25.3c14.6,0,26.5-11.9,26.5-26.5 C323.7,739.419,323.6,738.019,323.4,736.72z"/> <path d="M231.1,509.619c0-4.699,0.9-21.6,0.9-25.5c0-37.898-30.7-68.6-68.6-68.6l0,0l0,0h-0.1h-0.1l0,0l0,0c-0.4,0-0.9,0-1.3,0 s-0.9,0-1.3,0l0,0l0,0h-0.1h-0.1l0,0l0,0c-37.9,0-68.6,30.701-68.6,68.6c0,3.9,0.9,20.9,0.9,25.5c-1.7,0.102-17-3.6-15.4,14.801 c3.5,39,18.4,31.4,18.8,31.4c7.3,23.5,18.7,38.5,29.8,48.1c17.4,14.9,34.2,16.5,34.5,16.5c0.5,0,0.9,0,1.4,0l0,0l0,0 c0.5,0,0.9,0,1.4,0c0.3,0,17-1.6,34.3-16.4c11.2-9.5,22.6-24.6,30-48.199c0.4,0,15.3,7.6,18.8-31.4 C248.1,506.019,232.7,509.72,231.1,509.619z"/> </g> </g> <g> <path d="M557.9,346.52L557.9,346.52L557.9,346.52c-0.201-1.5-0.6-3-1.1-4.4c-3.602-13.7-11.701-38.5-15.4-49.7 c-0.4-1.9-1-3.8-1.9-5.6v-0.1l0,0c-2.301-4.8-5.9-8.9-10.5-11.6l0,0c-0.301-0.2-0.801-0.5-1.6-0.9c-0.301-0.2-0.6-0.3-0.9-0.4 c-8.9-4.2-36.4-15.2-36.4-15.2l0,0c-13.699-5.9-27.9-11-42.4-16.2l0,0l0,0l0,0l0,0c-2.6,10.8-27.199,82.3-31.1,92.3l-3.1-66.5 c1-1.6,1.801-3.4,2.6-5.1l10.301-20.3c-7.201,6-18.1,9.8-30.201,9.8c-11.8,0-22.399-3.6-29.6-9.4l10,19.8c0.8,1.7,1.5,3.5,2.6,5.1 l-3.1,66.5c-3.9-9.9-28.5-81.5-31.101-92.3l0,0l0,0l0,0l0,0c-14.5,5.1-28.699,10.2-42.399,16.2l0,0c0,0-27.4,11-36.4,15.2 c-0.3,0.1-0.6,0.3-0.9,0.4c-0.8,0.4-1.3,0.7-1.6,0.9l0,0c-4.6,2.7-8.2,6.8-10.5,11.6l0,0c0,0,0,0,0,0.1c-0.8,1.8-1.4,3.6-1.9,5.6 c-3.7,11.1-11.8,36-15.4,49.7c-0.5,1.4-0.8,2.9-1.1,4.4l0,0l0,0c-0.2,1.3-0.3,2.7-0.3,4.1c0,14.6,11.9,26.5,26.5,26.5h25.3 c36.2,0,72.4,0,108.6,0c0.5,0,0.9,0,1.4,0l0,0c0.5,0,0.899,0,1.399,0c36.201,0,72.4,0,108.602,0H531.6c14.6,0,26.5-11.9,26.5-26.5 C558.199,349.219,558.1,347.819,557.9,346.52z"/> <path d="M465.6,119.52c0-4.7,0.9-21.6,0.9-25.5c0-37.9-30.699-68.6-68.6-68.6l0,0l0,0h-0.1h-0.102l0,0l0,0 c-0.398,0-0.899,0-1.299,0s-0.9,0-1.3,0l0,0l0,0H395h-0.1l0,0l0,0c-37.9,0-68.6,30.7-68.6,68.6c0,3.9,0.899,20.9,0.899,25.5 c-1.7,0.1-17-3.6-15.399,14.8c3.5,39,18.399,31.4,18.8,31.4c7.3,23.5,18.7,38.5,29.8,48.1c17.4,14.9,34.2,16.5,34.5,16.5 c0.5,0,0.9,0,1.4,0l0,0l0,0c0.5,0,0.899,0,1.399,0c0.301,0,17-1.6,34.301-16.4c11.199-9.5,22.6-24.6,30-48.2 c0.4,0,15.301,7.6,18.801-31.4C482.6,115.919,467.301,119.52,465.6,119.52z"/> </g> <polygon points="419.699,527.72 419.699,414.119 374.7,414.119 374.7,527.72 299.1,603.32 330.9,635.119 397.199,568.919 461.9,633.619 493.699,601.72 "/> </g> </g>
</svg>